<?xml version="1.0" encoding="iso-8859-1"?>
<!-- Generator: Adobe Illustrator 19.0.0, SVG Export Plug-In . SVG Version: 6.00 Build 0)  -->
<svg version="1.1" id="Capa_1" xmlns="http://www.w3.org/2000/svg" xmlns:xlink="http://www.w3.org/1999/xlink" x="0px" y="0px"
	 viewBox="0 0 511.993 511.993" style="enable-background:new 0 0 511.993 511.993;" xml:space="preserve">
<g>
	<g>
		<path d="M465.426,365.049l-234.667-192c-3.2-2.603-7.637-3.157-11.328-1.365c-3.733,1.771-6.101,5.525-6.101,9.643v320
			c0,4.693,3.072,8.853,7.573,10.219c1.024,0.299,2.069,0.448,3.093,0.448c3.499,0,6.869-1.728,8.875-4.757l82.176-123.243h143.616
			c4.523,0,8.533-2.837,10.048-7.104C470.247,372.643,468.924,367.907,465.426,365.049z M309.329,362.659
			c-3.563,0-6.891,1.792-8.875,4.736l-65.792,98.688V203.833l194.112,158.827H309.329z"/>
	</g>
</g>
<g>
	<g>
		<path d="M289.084,12.089C195.751-23.794,90.641,22.926,54.737,116.238c-35.883,93.333,10.837,198.443,104.149,234.347
			c1.259,0.469,2.56,0.704,3.84,0.704c4.288,0,8.32-2.603,9.963-6.848c2.112-5.483-0.64-11.669-6.123-13.781
			C84.22,299.001,43.004,206.243,74.663,123.897C106.321,41.55,199.079,0.313,281.425,32.014
			c82.347,31.659,123.563,124.416,91.904,206.763c-2.112,5.483,0.64,11.669,6.123,13.781c5.461,2.091,11.648-0.619,13.781-6.123
			C429.116,153.102,382.396,47.993,289.084,12.089z"/>
	</g>
</g>
<g>
</g>
<g>
</g>
<g>
</g>
<g>
</g>
<g>
</g>
<g>
</g>
<g>
</g>
<g>
</g>
<g>
</g>
<g>
</g>
<g>
</g>
<g>
</g>
<g>
</g>
<g>
</g>
<g>
</g>
</svg>
